<mxfile host="app.diagrams.net" agent="Mozilla/5.0 (X11; Linux x86_64) AppleWebKit/537.36 (KHTML, like Gecko) Chrome/135.0.0.0 Safari/537.36" version="26.3.0">
  <diagram id="C5RBs43oDa-KdzZeNtuy" name="Page-1">
    <mxGraphModel dx="2383" dy="1114" grid="1" gridSize="10" guides="1" tooltips="1" connect="1" arrows="1" fold="1" page="1" pageScale="1" pageWidth="827" pageHeight="1169" math="0" shadow="0">
      <root>
        <mxCell id="WIyWlLk6GJQsqaUBKTNV-0" />
        <mxCell id="WIyWlLk6GJQsqaUBKTNV-1" parent="WIyWlLk6GJQsqaUBKTNV-0" />
        <mxCell id="YxOy0pmNRRjboRJVO0OH-23" value="Isma Contaier" style="swimlane;whiteSpace=wrap;html=1;" parent="WIyWlLk6GJQsqaUBKTNV-1" vertex="1">
          <mxGeometry x="134" y="20" width="560" height="380" as="geometry" />
        </mxCell>
        <mxCell id="djY0cKDpvmUm5j8Hwuhj-0" value="ISMAConnectorImpl @Component" style="swimlane;fontStyle=1;align=center;verticalAlign=top;childLayout=stackLayout;horizontal=1;startSize=26;horizontalStack=0;resizeParent=1;resizeParentMax=0;resizeLast=0;collapsible=1;marginBottom=0;whiteSpace=wrap;html=1;" vertex="1" parent="YxOy0pmNRRjboRJVO0OH-23">
          <mxGeometry x="40" y="39" width="320" height="230" as="geometry" />
        </mxCell>
        <mxCell id="djY0cKDpvmUm5j8Hwuhj-1" value="- connectorFactory: AconnectorFactory @Refrence&lt;div&gt;- startTimestamp: Long&lt;/div&gt;" style="text;strokeColor=none;fillColor=none;align=left;verticalAlign=top;spacingLeft=4;spacingRight=4;overflow=hidden;rotatable=0;points=[[0,0.5],[1,0.5]];portConstraint=eastwest;whiteSpace=wrap;html=1;" vertex="1" parent="djY0cKDpvmUm5j8Hwuhj-0">
          <mxGeometry y="26" width="320" height="94" as="geometry" />
        </mxCell>
        <mxCell id="djY0cKDpvmUm5j8Hwuhj-2" value="" style="line;strokeWidth=1;fillColor=none;align=left;verticalAlign=middle;spacingTop=-1;spacingLeft=3;spacingRight=3;rotatable=0;labelPosition=right;points=[];portConstraint=eastwest;strokeColor=inherit;" vertex="1" parent="djY0cKDpvmUm5j8Hwuhj-0">
          <mxGeometry y="120" width="320" height="8" as="geometry" />
        </mxCell>
        <mxCell id="djY0cKDpvmUm5j8Hwuhj-3" value="+ activate(): void&lt;div&gt;+ deactivate():void&lt;/div&gt;&lt;div&gt;+ getEndpoints():List&amp;lt;ConnectorEndpoint&amp;gt;&lt;/div&gt;&lt;div&gt;+ getInfo(): ConnectorInfo&lt;/div&gt;&lt;div&gt;+&amp;nbsp;&lt;span style=&quot;background-color: transparent; color: light-dark(rgb(0, 0, 0), rgb(255, 255, 255));&quot;&gt;dryRequest(EndpointRequest):EndpointResponse&lt;/span&gt;&lt;/div&gt;&lt;div&gt;&lt;span style=&quot;background-color: transparent; color: light-dark(rgb(0, 0, 0), rgb(255, 255, 255));&quot;&gt;+&amp;nbsp;&lt;/span&gt;&lt;span style=&quot;background-color: transparent; color: light-dark(rgb(0, 0, 0), rgb(255, 255, 255));&quot;&gt;&amp;nbsp;executeRequest(EndpointRequest):EndpointResponse&amp;nbsp;&lt;/span&gt;&lt;/div&gt;&lt;div&gt;&lt;span style=&quot;background-color: transparent; color: light-dark(rgb(0, 0, 0), rgb(255, 255, 255));&quot;&gt;&lt;br&gt;&lt;/span&gt;&lt;/div&gt;&lt;div&gt;&lt;span style=&quot;background-color: transparent; color: light-dark(rgb(0, 0, 0), rgb(255, 255, 255));&quot;&gt;&lt;br&gt;&lt;/span&gt;&lt;/div&gt;&lt;div&gt;&lt;span style=&quot;background-color: transparent; color: light-dark(rgb(0, 0, 0), rgb(255, 255, 255));&quot;&gt;&lt;br&gt;&lt;/span&gt;&lt;/div&gt;" style="text;strokeColor=none;fillColor=none;align=left;verticalAlign=top;spacingLeft=4;spacingRight=4;overflow=hidden;rotatable=0;points=[[0,0.5],[1,0.5]];portConstraint=eastwest;whiteSpace=wrap;html=1;" vertex="1" parent="djY0cKDpvmUm5j8Hwuhj-0">
          <mxGeometry y="128" width="320" height="102" as="geometry" />
        </mxCell>
        <mxCell id="YxOy0pmNRRjboRJVO0OH-12" value="API Container" style="swimlane;whiteSpace=wrap;html=1;" parent="WIyWlLk6GJQsqaUBKTNV-1" vertex="1">
          <mxGeometry x="-730" y="20" width="450" height="380" as="geometry" />
        </mxCell>
        <mxCell id="YxOy0pmNRRjboRJVO0OH-15" value="&amp;lt;&amp;lt;Interface&amp;gt;&amp;gt;&lt;div&gt;AvatarConnector&lt;/div&gt;" style="swimlane;fontStyle=1;align=center;verticalAlign=top;childLayout=stackLayout;horizontal=1;startSize=60;horizontalStack=0;resizeParent=1;resizeParentMax=0;resizeLast=0;collapsible=1;marginBottom=0;whiteSpace=wrap;html=1;fillStyle=auto;" parent="YxOy0pmNRRjboRJVO0OH-12" vertex="1">
          <mxGeometry x="20" y="40" width="320" height="120" as="geometry">
            <mxRectangle x="60" y="50" width="120" height="40" as="alternateBounds" />
          </mxGeometry>
        </mxCell>
        <mxCell id="YxOy0pmNRRjboRJVO0OH-17" value="" style="line;strokeWidth=1;fillColor=none;align=left;verticalAlign=middle;spacingTop=-1;spacingLeft=3;spacingRight=3;rotatable=0;labelPosition=right;points=[];portConstraint=eastwest;strokeColor=inherit;" parent="YxOy0pmNRRjboRJVO0OH-15" vertex="1">
          <mxGeometry y="60" width="320" height="8" as="geometry" />
        </mxCell>
        <mxCell id="YxOy0pmNRRjboRJVO0OH-18" value="+ dryRequest(EndpointRequest):EndpointResponse&lt;div&gt;+ executeRequest(EndpointRequest):EndpointResponse&amp;nbsp;&lt;/div&gt;" style="text;strokeColor=none;fillColor=none;align=left;verticalAlign=top;spacingLeft=4;spacingRight=4;overflow=hidden;rotatable=0;points=[[0,0.5],[1,0.5]];portConstraint=eastwest;whiteSpace=wrap;html=1;" parent="YxOy0pmNRRjboRJVO0OH-15" vertex="1">
          <mxGeometry y="68" width="320" height="52" as="geometry" />
        </mxCell>
        <mxCell id="YxOy0pmNRRjboRJVO0OH-19" value="&amp;lt;&amp;lt;Interface&amp;gt;&amp;gt;&lt;div&gt;AvatarConnectorInfo&lt;/div&gt;" style="swimlane;fontStyle=1;align=center;verticalAlign=top;childLayout=stackLayout;horizontal=1;startSize=60;horizontalStack=0;resizeParent=1;resizeParentMax=0;resizeLast=0;collapsible=1;marginBottom=0;whiteSpace=wrap;html=1;fillStyle=auto;" parent="YxOy0pmNRRjboRJVO0OH-12" vertex="1">
          <mxGeometry x="60" y="210" width="280" height="120" as="geometry">
            <mxRectangle x="60" y="50" width="120" height="40" as="alternateBounds" />
          </mxGeometry>
        </mxCell>
        <mxCell id="YxOy0pmNRRjboRJVO0OH-20" value="" style="line;strokeWidth=1;fillColor=none;align=left;verticalAlign=middle;spacingTop=-1;spacingLeft=3;spacingRight=3;rotatable=0;labelPosition=right;points=[];portConstraint=eastwest;strokeColor=inherit;" parent="YxOy0pmNRRjboRJVO0OH-19" vertex="1">
          <mxGeometry y="60" width="280" height="8" as="geometry" />
        </mxCell>
        <mxCell id="YxOy0pmNRRjboRJVO0OH-21" value="+ getEndpoints():List&amp;lt;ConnectorEndpoint&amp;gt;&lt;div&gt;+ getInfo():ConnectorInfo&amp;nbsp;&lt;/div&gt;" style="text;strokeColor=none;fillColor=none;align=left;verticalAlign=top;spacingLeft=4;spacingRight=4;overflow=hidden;rotatable=0;points=[[0,0.5],[1,0.5]];portConstraint=eastwest;whiteSpace=wrap;html=1;" parent="YxOy0pmNRRjboRJVO0OH-19" vertex="1">
          <mxGeometry y="68" width="280" height="52" as="geometry" />
        </mxCell>
        <mxCell id="YxOy0pmNRRjboRJVO0OH-24" value="Extends" style="html=1;verticalAlign=bottom;endArrow=block;curved=0;rounded=0;entryX=0.5;entryY=0;entryDx=0;entryDy=0;" parent="YxOy0pmNRRjboRJVO0OH-12" target="YxOy0pmNRRjboRJVO0OH-19" edge="1">
          <mxGeometry width="80" relative="1" as="geometry">
            <mxPoint x="200" y="160" as="sourcePoint" />
            <mxPoint x="290" y="380.5" as="targetPoint" />
          </mxGeometry>
        </mxCell>
        <mxCell id="djY0cKDpvmUm5j8Hwuhj-4" value="&lt;blockquote style=&quot;margin: 0 0 0 40px; border: none; padding: 0px;&quot;&gt;Implements&lt;/blockquote&gt;" style="html=1;verticalAlign=bottom;endArrow=block;curved=0;rounded=0;entryX=0.019;entryY=0.125;entryDx=0;entryDy=0;exitX=1;exitY=0.5;exitDx=0;exitDy=0;entryPerimeter=0;" edge="1" parent="WIyWlLk6GJQsqaUBKTNV-1" source="YxOy0pmNRRjboRJVO0OH-15" target="djY0cKDpvmUm5j8Hwuhj-2">
          <mxGeometry x="0.034" y="20" width="80" relative="1" as="geometry">
            <mxPoint x="-319.9999999999999" y="140.00200000000018" as="sourcePoint" />
            <mxPoint x="241.12" y="144.99" as="targetPoint" />
            <Array as="points" />
            <mxPoint x="1" as="offset" />
          </mxGeometry>
        </mxCell>
        <mxCell id="djY0cKDpvmUm5j8Hwuhj-14" value="eclipse.emf.ecore.efactory" style="swimlane;whiteSpace=wrap;html=1;" vertex="1" parent="WIyWlLk6GJQsqaUBKTNV-1">
          <mxGeometry x="-62" y="1000" width="240" height="100" as="geometry">
            <mxRectangle x="-370" y="440" width="180" height="30" as="alternateBounds" />
          </mxGeometry>
        </mxCell>
        <mxCell id="djY0cKDpvmUm5j8Hwuhj-6" value="connector.model" style="swimlane;whiteSpace=wrap;html=1;" vertex="1" parent="WIyWlLk6GJQsqaUBKTNV-1">
          <mxGeometry x="-760" y="880" width="668" height="3040" as="geometry">
            <mxRectangle x="-760" y="560" width="130" height="30" as="alternateBounds" />
          </mxGeometry>
        </mxCell>
        <mxCell id="djY0cKDpvmUm5j8Hwuhj-32" value="&lt;p style=&quot;margin:0px;margin-top:4px;text-align:center;&quot;&gt;&lt;i&gt;&amp;lt;&amp;lt;Interface&amp;gt;&amp;gt;&lt;/i&gt;&lt;br&gt;&lt;b&gt;AconnectorFactory @ProviderType&lt;/b&gt;&lt;/p&gt;&lt;hr size=&quot;1&quot; style=&quot;border-style:solid;&quot;&gt;&lt;p style=&quot;margin:0px;margin-left:4px;&quot;&gt;+ eINSTANCE: AConnectorFacotry&lt;br&gt;&lt;br&gt;&lt;/p&gt;&lt;hr size=&quot;1&quot; style=&quot;border-style:solid;&quot;&gt;&lt;div&gt;+ creatConnectorInfo():ConnectorInfo&lt;/div&gt;&lt;div&gt;+ createConnectorMetric():ConnectorInfo&lt;/div&gt;&lt;div&gt;+ createConnectorEndpoint():ConnectorEndpoint&lt;/div&gt;&lt;div&gt;+ createEndpointRequest():EndpointRequest&lt;/div&gt;&lt;div&gt;+ createEndpointResponse():EndpointResponse&lt;/div&gt;&lt;div&gt;+ createJavaParameter():JavaParameter&lt;/div&gt;&lt;div&gt;+ createEcoreParameter():EcoreParameter&lt;/div&gt;&lt;div&gt;+ createDryRunResult():DryRunResult&lt;/div&gt;&lt;div&gt;+ createErrorResult():ErrorResult&lt;/div&gt;&lt;div&gt;+ createEcoreResult():EcoreResult&lt;/div&gt;&lt;div&gt;+ createSimpleResult():SimpleResult+&lt;/div&gt;&lt;div&gt;&lt;span style=&quot;background-color: transparent; color: light-dark(rgb(0, 0, 0), rgb(255, 255, 255));&quot;&gt;+ getAConnectorPackage():AconnectorPackage&lt;/span&gt;&lt;span style=&quot;color: light-dark(rgba(0, 0, 0, 0), rgb(237, 237, 237)); font-family: monospace; font-size: 0px; text-wrap-mode: nowrap; background-color: transparent;&quot;&gt;%3CmxGraphModel%3E%3Croot%3E%3CmxCell%20id%3D%220%22%2F%3E%3CmxCell%20id%3D%221%22%20parent%3D%220%22%2F%3E%3CmxCell%20id%3D%222%22%20value%3D%22%26lt%3Bdiv%26gt%3B%2B%20creatConnectorInfo()%3AConnectorInfo%26lt%3B%2Fdiv%26gt%3B%26lt%3Bdiv%26gt%3B%2B%20createConnectorMetric()%3AConnectorInfo%26lt%3B%2Fdiv%26gt%3B%26lt%3Bdiv%26gt%3B%2B%20createConnectorEndpoint()%3AConnectorEndpoint%26lt%3B%2Fdiv%26gt%3B%26lt%3Bdiv%26gt%3B%2B%20createEndpointRequest()%3AEndpointRequest%26lt%3B%2Fdiv%26gt%3B%26lt%3Bdiv%26gt%3B%2B%20createEndpointResponse()%3AEndpointResponse%26lt%3B%2Fdiv%26gt%3B%26lt%3Bdiv%26gt%3B%2B%20createJavaParameter()%3AJavaParameter%26lt%3B%2Fdiv%26gt%3B%26lt%3Bdiv%26gt%3B%2B%20createEcoreParameter()%3AEcoreParameter%26lt%3B%2Fdiv%26gt%3B%26lt%3Bdiv%26gt%3B%2B%20createDryRunResult()%3ADryRunResult%26lt%3B%2Fdiv%26gt%3B%26lt%3Bdiv%26gt%3B%2B%20createErrorResult()%3AErrorResult%26lt%3B%2Fdiv%26gt%3B%26lt%3Bdiv%26gt%3B%2B%20createEcoreResult()%3AEcoreResult%26lt%3B%2Fdiv%26gt%3B%26lt%3Bdiv%26gt%3B%2B%20createSimpleResult()%3ASimpleResult%26lt%3B%2Fdiv%26gt%3B%26lt%3Bdiv%26gt%3B%2B%20getAConnectorPackage()%3AAconnectorPackage%26lt%3B%2Fdiv%26gt%3B%22%20style%3D%22text%3BstrokeColor%3Dnone%3BfillColor%3Dnone%3Balign%3Dleft%3BverticalAlign%3Dtop%3BspacingLeft%3D4%3BspacingRight%3D4%3Boverflow%3Dhidden%3Brotatable%3D0%3Bpoints%3D%5B%5B0%2C0.5%5D%2C%5B1%2C0.5%5D%5D%3BportConstraint%3Deastwest%3BwhiteSpace%3Dwrap%3Bhtml%3D1%3B%22%20vertex%3D%221%22%20parent%3D%221%22%3E%3CmxGeometry%20x%3D%22-807%22%20y%3D%22640%22%20width%3D%22320%22%20height%3D%22220%22%20as%3D%22geometry%22%2F%3E%3C%2FmxCell%3E%3C%2Froot%3E%3C%2FmxGraphModel%3E&lt;/span&gt;&lt;/div&gt;" style="verticalAlign=top;align=left;overflow=fill;html=1;whiteSpace=wrap;" vertex="1" parent="djY0cKDpvmUm5j8Hwuhj-6">
          <mxGeometry x="15" y="50" width="265" height="270" as="geometry" />
        </mxCell>
        <mxCell id="djY0cKDpvmUm5j8Hwuhj-40" value="&lt;p style=&quot;margin:0px;margin-top:4px;text-align:center;&quot;&gt;&lt;i&gt;&amp;lt;&amp;lt;Interface&amp;gt;&amp;gt;&lt;/i&gt;&lt;br&gt;&lt;b&gt;AConnectorPackage @ProviderType @Epackage&lt;/b&gt;&lt;/p&gt;&lt;hr size=&quot;1&quot; style=&quot;border-style:solid;&quot;&gt;&lt;p style=&quot;margin:0px;margin-left:4px;&quot;&gt;+ eName: String&lt;/p&gt;&lt;p style=&quot;margin:0px;margin-left:4px;&quot;&gt;+ eNS_URI: String&lt;/p&gt;&lt;p style=&quot;margin:0px;margin-left:4px;&quot;&gt;+ eNS_PREFIX: String&lt;/p&gt;&lt;p style=&quot;margin:0px;margin-left:4px;&quot;&gt;+ eCONTENT_TYPE: String&lt;/p&gt;&lt;p style=&quot;margin:0px;margin-left:4px;&quot;&gt;+ eINSTANCE: AConnectorPackage&lt;/p&gt;&lt;p style=&quot;margin:0px;margin-left:4px;&quot;&gt;.....&lt;/p&gt;&lt;hr size=&quot;1&quot; style=&quot;border-style:solid;&quot;&gt;&lt;div&gt;+ getConnectorInfo():EClass&lt;br&gt;&lt;/div&gt;&lt;div&gt;+ getConnectorInfo_Id():EAttribute&lt;/div&gt;&lt;div&gt;+ getConnectorInfo_Provider():EAttribute&lt;/div&gt;&lt;div&gt;.....&lt;/div&gt;&lt;div&gt;&lt;br&gt;&lt;/div&gt;" style="verticalAlign=top;align=left;overflow=fill;html=1;whiteSpace=wrap;" vertex="1" parent="djY0cKDpvmUm5j8Hwuhj-6">
          <mxGeometry x="17.5" y="340" width="232.5" height="210" as="geometry" />
        </mxCell>
        <mxCell id="djY0cKDpvmUm5j8Hwuhj-44" value="&lt;p style=&quot;margin:0px;margin-top:4px;text-align:center;&quot;&gt;&lt;i&gt;&amp;lt;&amp;lt;Interface&amp;gt;&amp;gt;&lt;/i&gt;&lt;br&gt;&lt;b&gt;ConnectorEndpoint @ProviderType&lt;/b&gt;&lt;/p&gt;&lt;hr size=&quot;1&quot; style=&quot;border-style:solid;&quot;&gt;&lt;p style=&quot;margin:0px;margin-left:4px;&quot;&gt;&lt;br&gt;&lt;/p&gt;&lt;hr size=&quot;1&quot; style=&quot;border-style:solid;&quot;&gt;&lt;div&gt;+ getID():String&lt;/div&gt;&lt;div&gt;+ setID():Void&lt;/div&gt;&lt;div&gt;+ getName():String&lt;/div&gt;&lt;div&gt;+ setName(String):Void&lt;/div&gt;&lt;div&gt;+ getUri():String&lt;/div&gt;&lt;div&gt;+ setUri(String):Void&lt;/div&gt;&lt;div&gt;+ getMethod():String&lt;/div&gt;&lt;div&gt;+ setMethod(String):Void&lt;/div&gt;&lt;div&gt;+ getProocol():ProtocolType&lt;/div&gt;&lt;div&gt;+ setProtocol(ProtocoleType):Void&lt;/div&gt;&lt;div&gt;+ getMediaType():String&lt;/div&gt;&lt;div&gt;+ setMediaType(String):Void&lt;/div&gt;&lt;div&gt;+ getConnector():ConnectorInfo&lt;/div&gt;&lt;div&gt;+ setConnector(ConnectorInfo):Void&lt;/div&gt;&lt;div&gt;+ getModelPackage():Epackage&lt;/div&gt;&lt;div&gt;+ setModelPackage(Epackage):Void&lt;/div&gt;&lt;div&gt;&lt;br&gt;&lt;/div&gt;&lt;div&gt;&lt;br&gt;&lt;/div&gt;&lt;div&gt;&lt;br&gt;&lt;/div&gt;&lt;div&gt;&lt;br&gt;&lt;/div&gt;" style="verticalAlign=top;align=left;overflow=fill;html=1;whiteSpace=wrap;" vertex="1" parent="djY0cKDpvmUm5j8Hwuhj-6">
          <mxGeometry x="15" y="570" width="225" height="310" as="geometry" />
        </mxCell>
        <mxCell id="djY0cKDpvmUm5j8Hwuhj-46" value="&lt;p style=&quot;margin:0px;margin-top:4px;text-align:center;&quot;&gt;&lt;i&gt;&amp;lt;&amp;lt;Interface&amp;gt;&amp;gt;&lt;/i&gt;&lt;br&gt;&lt;b&gt;ConnectorInfo @ProviderType&lt;/b&gt;&lt;/p&gt;&lt;hr size=&quot;1&quot; style=&quot;border-style:solid;&quot;&gt;&lt;p style=&quot;margin:0px;margin-left:4px;&quot;&gt;&lt;br&gt;&lt;/p&gt;&lt;hr size=&quot;1&quot; style=&quot;border-style:solid;&quot;&gt;&lt;div&gt;+ getID():String&lt;/div&gt;&lt;div&gt;+ setID():Void&lt;/div&gt;&lt;div&gt;+ getName():String&lt;/div&gt;&lt;div&gt;+ setName(String):Void&lt;/div&gt;&lt;div&gt;+ getProvider():String&lt;/div&gt;&lt;div&gt;+ setProvider(String):Voide&lt;/div&gt;&lt;div&gt;+ getVersion():short&lt;/div&gt;&lt;div&gt;+ setVersion(short):void&lt;/div&gt;&lt;div&gt;+ getEndpont():EList&amp;lt;ConnectorEndpoint&amp;gt;&lt;/div&gt;&lt;div&gt;+ getMetric():ConnectorMetic&lt;/div&gt;&lt;div&gt;+ setMetric(ConnectorMetric):Void&lt;/div&gt;&lt;div&gt;+ getConnectorModel():EPackage&lt;/div&gt;&lt;div&gt;+ setConnectorModel(EPackage):Voide&lt;/div&gt;&lt;div&gt;&lt;br&gt;&lt;/div&gt;&lt;div&gt;&lt;br&gt;&lt;/div&gt;&lt;div&gt;&lt;br&gt;&lt;/div&gt;&lt;div&gt;&lt;br&gt;&lt;/div&gt;&lt;div&gt;&lt;br&gt;&lt;/div&gt;" style="verticalAlign=top;align=left;overflow=fill;html=1;whiteSpace=wrap;" vertex="1" parent="djY0cKDpvmUm5j8Hwuhj-6">
          <mxGeometry x="10" y="900" width="235" height="270" as="geometry" />
        </mxCell>
        <mxCell id="djY0cKDpvmUm5j8Hwuhj-48" value="&lt;p style=&quot;margin:0px;margin-top:4px;text-align:center;&quot;&gt;&lt;i&gt;&amp;lt;&amp;lt;Interface&amp;gt;&amp;gt;&lt;/i&gt;&lt;br&gt;&lt;b&gt;ConnectorMetic @ProviderType&lt;/b&gt;&lt;/p&gt;&lt;hr size=&quot;1&quot; style=&quot;border-style:solid;&quot;&gt;&lt;p style=&quot;margin:0px;margin-left:4px;&quot;&gt;&lt;br&gt;&lt;/p&gt;&lt;hr size=&quot;1&quot; style=&quot;border-style:solid;&quot;&gt;&lt;div&gt;+ getID():String&lt;/div&gt;&lt;div&gt;+ setID():Void&lt;/div&gt;&lt;div&gt;+ getimestamp():Long&lt;/div&gt;&lt;div&gt;+ setTimestamp(Long):Void&lt;/div&gt;&lt;div&gt;+ getStatus():StatusType&lt;/div&gt;&lt;div&gt;+ setStatus(StatusType)&lt;/div&gt;&lt;div&gt;+ setUptime(Long): Void&lt;/div&gt;&lt;div&gt;+ getConnector():ConnectorInfo&lt;/div&gt;&lt;div&gt;+ setConnector(ConnectorInfo):void&lt;/div&gt;&lt;div&gt;&lt;br&gt;&lt;/div&gt;&lt;div&gt;&lt;br&gt;&lt;/div&gt;&lt;div&gt;&lt;br&gt;&lt;/div&gt;&lt;div&gt;&lt;br&gt;&lt;/div&gt;&lt;div&gt;&lt;br&gt;&lt;/div&gt;&lt;div&gt;&lt;br&gt;&lt;/div&gt;" style="verticalAlign=top;align=left;overflow=fill;html=1;whiteSpace=wrap;" vertex="1" parent="djY0cKDpvmUm5j8Hwuhj-6">
          <mxGeometry x="15" y="1210" width="215" height="220" as="geometry" />
        </mxCell>
        <mxCell id="djY0cKDpvmUm5j8Hwuhj-50" value="&lt;p style=&quot;margin:0px;margin-top:4px;text-align:center;&quot;&gt;&lt;i&gt;&amp;lt;&amp;lt;Interface&amp;gt;&amp;gt;&lt;/i&gt;&lt;br&gt;&lt;b&gt;DryRunResult @ProviderType&lt;/b&gt;&lt;/p&gt;&lt;hr size=&quot;1&quot; style=&quot;border-style:solid;&quot;&gt;&lt;p style=&quot;margin:0px;margin-left:4px;&quot;&gt;&lt;br&gt;&lt;/p&gt;&lt;hr size=&quot;1&quot; style=&quot;border-style:solid;&quot;&gt;&lt;div&gt;+ getResultCOunt(): int&lt;/div&gt;&lt;div&gt;+ setResultCount(int): void&lt;/div&gt;&lt;div&gt;+ getEstRuntime():long&lt;/div&gt;&lt;div&gt;+ setEstRuntime(long): void&lt;/div&gt;&lt;div&gt;&lt;br&gt;&lt;/div&gt;&lt;div&gt;&lt;br&gt;&lt;/div&gt;&lt;div&gt;&lt;br&gt;&lt;/div&gt;&lt;div&gt;&lt;br&gt;&lt;/div&gt;&lt;div&gt;&lt;br&gt;&lt;/div&gt;&lt;div&gt;&lt;br&gt;&lt;/div&gt;" style="verticalAlign=top;align=left;overflow=fill;html=1;whiteSpace=wrap;" vertex="1" parent="djY0cKDpvmUm5j8Hwuhj-6">
          <mxGeometry x="25" y="1470" width="215" height="220" as="geometry" />
        </mxCell>
        <mxCell id="djY0cKDpvmUm5j8Hwuhj-51" value="&lt;p style=&quot;margin:0px;margin-top:4px;text-align:center;&quot;&gt;&lt;i&gt;&amp;lt;&amp;lt;Interface&amp;gt;&amp;gt;&lt;/i&gt;&lt;br&gt;&lt;b&gt;ResponseResult @ProviderType&lt;/b&gt;&lt;/p&gt;&lt;hr size=&quot;1&quot; style=&quot;border-style:solid;&quot;&gt;&lt;p style=&quot;margin:0px;margin-left:4px;&quot;&gt;&lt;br&gt;&lt;/p&gt;&lt;hr size=&quot;1&quot; style=&quot;border-style:solid;&quot;&gt;&lt;div&gt;+ getMetaData():ResponseMetadata&lt;/div&gt;&lt;div&gt;+ setMetaData(ResponseMetadData):void&lt;/div&gt;&lt;div&gt;&lt;br&gt;&lt;/div&gt;&lt;div&gt;&lt;br&gt;&lt;/div&gt;&lt;div&gt;&lt;br&gt;&lt;/div&gt;&lt;div&gt;&lt;br&gt;&lt;/div&gt;&lt;div&gt;&lt;br&gt;&lt;/div&gt;&lt;div&gt;&lt;br&gt;&lt;/div&gt;" style="verticalAlign=top;align=left;overflow=fill;html=1;whiteSpace=wrap;" vertex="1" parent="djY0cKDpvmUm5j8Hwuhj-6">
          <mxGeometry x="345" y="1314" width="230" height="220" as="geometry" />
        </mxCell>
        <mxCell id="djY0cKDpvmUm5j8Hwuhj-52" value="Extends" style="html=1;verticalAlign=bottom;endArrow=block;curved=0;rounded=0;exitX=0.992;exitY=0.439;exitDx=0;exitDy=0;entryX=0;entryY=0.75;entryDx=0;entryDy=0;exitPerimeter=0;" edge="1" parent="djY0cKDpvmUm5j8Hwuhj-6" source="djY0cKDpvmUm5j8Hwuhj-50" target="djY0cKDpvmUm5j8Hwuhj-51">
          <mxGeometry width="80" relative="1" as="geometry">
            <mxPoint x="245" y="1587" as="sourcePoint" />
            <mxPoint x="764" y="1130" as="targetPoint" />
          </mxGeometry>
        </mxCell>
        <mxCell id="djY0cKDpvmUm5j8Hwuhj-57" value="Extends" style="html=1;verticalAlign=bottom;endArrow=block;curved=0;rounded=0;exitX=1;exitY=0.25;exitDx=0;exitDy=0;entryX=0;entryY=0.25;entryDx=0;entryDy=0;" edge="1" parent="djY0cKDpvmUm5j8Hwuhj-6" source="djY0cKDpvmUm5j8Hwuhj-55" target="djY0cKDpvmUm5j8Hwuhj-56">
          <mxGeometry width="80" relative="1" as="geometry">
            <mxPoint x="240" y="1802" as="sourcePoint" />
            <mxPoint x="342" y="1580" as="targetPoint" />
          </mxGeometry>
        </mxCell>
        <mxCell id="djY0cKDpvmUm5j8Hwuhj-62" value="Extends" style="html=1;verticalAlign=bottom;endArrow=block;curved=0;rounded=0;exitX=1;exitY=0.25;exitDx=0;exitDy=0;entryX=0;entryY=0.25;entryDx=0;entryDy=0;" edge="1" parent="djY0cKDpvmUm5j8Hwuhj-6" source="djY0cKDpvmUm5j8Hwuhj-59" target="djY0cKDpvmUm5j8Hwuhj-56">
          <mxGeometry width="80" relative="1" as="geometry">
            <mxPoint x="307" y="2030" as="sourcePoint" />
            <mxPoint x="407" y="1800" as="targetPoint" />
          </mxGeometry>
        </mxCell>
        <mxCell id="djY0cKDpvmUm5j8Hwuhj-63" value="&lt;p style=&quot;margin:0px;margin-top:4px;text-align:center;&quot;&gt;&lt;i&gt;&amp;lt;&amp;lt;Interface&amp;gt;&amp;gt;&lt;/i&gt;&lt;br&gt;&lt;b&gt;JavaResult @ProviderType&lt;/b&gt;&lt;/p&gt;&lt;hr size=&quot;1&quot; style=&quot;border-style:solid;&quot;&gt;&lt;p style=&quot;margin:0px;margin-left:4px;&quot;&gt;&lt;br&gt;&lt;/p&gt;&lt;hr size=&quot;1&quot; style=&quot;border-style:solid;&quot;&gt;&lt;div&gt;+ getTypeString():String&lt;/div&gt;&lt;div&gt;+ setTypeString(String):void&lt;/div&gt;&lt;div&gt;+ getValue():Object&lt;/div&gt;&lt;div&gt;+ setValue(Object):Void&lt;/div&gt;&lt;div&gt;&lt;br&gt;&lt;/div&gt;&lt;div&gt;&lt;br&gt;&lt;/div&gt;&lt;div&gt;&lt;br&gt;&lt;/div&gt;&lt;div&gt;&lt;br&gt;&lt;/div&gt;&lt;div&gt;&lt;br&gt;&lt;/div&gt;&lt;div&gt;&lt;br&gt;&lt;/div&gt;" style="verticalAlign=top;align=left;overflow=fill;html=1;whiteSpace=wrap;" vertex="1" parent="djY0cKDpvmUm5j8Hwuhj-6">
          <mxGeometry x="20" y="1720" width="215" height="220" as="geometry" />
        </mxCell>
        <mxCell id="djY0cKDpvmUm5j8Hwuhj-64" value="Extends" style="html=1;verticalAlign=bottom;endArrow=block;curved=0;rounded=0;exitX=1;exitY=0.25;exitDx=0;exitDy=0;entryX=0;entryY=0.75;entryDx=0;entryDy=0;" edge="1" parent="djY0cKDpvmUm5j8Hwuhj-6" source="djY0cKDpvmUm5j8Hwuhj-63" target="djY0cKDpvmUm5j8Hwuhj-51">
          <mxGeometry width="80" relative="1" as="geometry">
            <mxPoint x="264.75" y="1778" as="sourcePoint" />
            <mxPoint x="386.75" y="1670" as="targetPoint" />
          </mxGeometry>
        </mxCell>
        <mxCell id="djY0cKDpvmUm5j8Hwuhj-56" value="&lt;p style=&quot;margin:0px;margin-top:4px;text-align:center;&quot;&gt;&lt;i&gt;&amp;lt;&amp;lt;Interface&amp;gt;&amp;gt;&lt;/i&gt;&lt;br&gt;&lt;b&gt;Parameter @ProviderType&lt;/b&gt;&lt;/p&gt;&lt;hr size=&quot;1&quot; style=&quot;border-style:solid;&quot;&gt;&lt;p style=&quot;margin:0px;margin-left:4px;&quot;&gt;&lt;br&gt;&lt;/p&gt;&lt;hr size=&quot;1&quot; style=&quot;border-style:solid;&quot;&gt;&lt;div&gt;+ getName():String&lt;/div&gt;&lt;div&gt;+ setName(String): Void&lt;/div&gt;&lt;div&gt;+ getNumber():short&lt;/div&gt;&lt;div&gt;+ setNumber(short):Void&lt;/div&gt;&lt;div&gt;&lt;br&gt;&lt;/div&gt;&lt;div&gt;&lt;br&gt;&lt;/div&gt;&lt;div&gt;&lt;br&gt;&lt;/div&gt;&lt;div&gt;&lt;br&gt;&lt;/div&gt;&lt;div&gt;&lt;br&gt;&lt;/div&gt;" style="verticalAlign=top;align=left;overflow=fill;html=1;whiteSpace=wrap;" vertex="1" parent="djY0cKDpvmUm5j8Hwuhj-6">
          <mxGeometry x="392.25" y="2220" width="230" height="220" as="geometry" />
        </mxCell>
        <mxCell id="djY0cKDpvmUm5j8Hwuhj-55" value="&lt;p style=&quot;margin:0px;margin-top:4px;text-align:center;&quot;&gt;&lt;i&gt;&amp;lt;&amp;lt;Interface&amp;gt;&amp;gt;&lt;/i&gt;&lt;br&gt;&lt;b&gt;EcoreParameter @ProviderType&lt;/b&gt;&lt;/p&gt;&lt;hr size=&quot;1&quot; style=&quot;border-style:solid;&quot;&gt;&lt;p style=&quot;margin:0px;margin-left:4px;&quot;&gt;&lt;br&gt;&lt;/p&gt;&lt;hr size=&quot;1&quot; style=&quot;border-style:solid;&quot;&gt;&lt;div&gt;+ getValue():EObject&lt;/div&gt;&lt;div&gt;+ setValue(EObject):void&lt;/div&gt;&lt;div&gt;&lt;br&gt;&lt;/div&gt;&lt;div&gt;&lt;br&gt;&lt;/div&gt;&lt;div&gt;&lt;br&gt;&lt;/div&gt;&lt;div&gt;&lt;br&gt;&lt;/div&gt;&lt;div&gt;&lt;br&gt;&lt;/div&gt;&lt;div&gt;&lt;br&gt;&lt;/div&gt;" style="verticalAlign=top;align=left;overflow=fill;html=1;whiteSpace=wrap;" vertex="1" parent="djY0cKDpvmUm5j8Hwuhj-6">
          <mxGeometry x="57.75" y="2250" width="210" height="220" as="geometry" />
        </mxCell>
        <mxCell id="djY0cKDpvmUm5j8Hwuhj-59" value="&lt;p style=&quot;margin:0px;margin-top:4px;text-align:center;&quot;&gt;&lt;i&gt;&amp;lt;&amp;lt;Interface&amp;gt;&amp;gt;&lt;/i&gt;&lt;br&gt;&lt;b&gt;JavaParameter @ProviderType&lt;/b&gt;&lt;/p&gt;&lt;hr size=&quot;1&quot; style=&quot;border-style:solid;&quot;&gt;&lt;p style=&quot;margin:0px;margin-left:4px;&quot;&gt;&lt;br&gt;&lt;/p&gt;&lt;hr size=&quot;1&quot; style=&quot;border-style:solid;&quot;&gt;&lt;div&gt;+ getTypeString():String&lt;/div&gt;&lt;div&gt;+ setTypeString(String):Void&lt;/div&gt;&lt;div&gt;+ getValue():Object&lt;/div&gt;&lt;div&gt;+ setValue(Object):Void&lt;/div&gt;&lt;div&gt;&lt;br&gt;&lt;/div&gt;&lt;div&gt;&lt;br&gt;&lt;/div&gt;&lt;div&gt;&lt;br&gt;&lt;/div&gt;&lt;div&gt;&lt;br&gt;&lt;/div&gt;&lt;div&gt;&lt;br&gt;&lt;/div&gt;" style="verticalAlign=top;align=left;overflow=fill;html=1;whiteSpace=wrap;" vertex="1" parent="djY0cKDpvmUm5j8Hwuhj-6">
          <mxGeometry x="65.25" y="2500" width="210" height="220" as="geometry" />
        </mxCell>
        <mxCell id="djY0cKDpvmUm5j8Hwuhj-68" value="&lt;p style=&quot;margin:0px;margin-top:4px;text-align:center;&quot;&gt;&lt;i&gt;&amp;lt;&amp;lt;Enum&amp;gt;&amp;gt;&lt;/i&gt;&lt;br&gt;&lt;b&gt;ProtocolType&lt;/b&gt;&lt;/p&gt;&lt;hr size=&quot;1&quot; style=&quot;border-style:solid;&quot;&gt;&lt;p style=&quot;margin:0px;margin-left:4px;&quot;&gt;&lt;br&gt;&lt;/p&gt;" style="verticalAlign=top;align=left;overflow=fill;html=1;whiteSpace=wrap;" vertex="1" parent="djY0cKDpvmUm5j8Hwuhj-6">
          <mxGeometry x="38" y="2790" width="222.5" height="60" as="geometry" />
        </mxCell>
        <mxCell id="djY0cKDpvmUm5j8Hwuhj-70" value="&lt;p style=&quot;margin:0px;margin-top:4px;text-align:center;&quot;&gt;&lt;i&gt;&amp;lt;&amp;lt;Enum&amp;gt;&amp;gt;&lt;/i&gt;&lt;br&gt;&lt;b&gt;ResponseCode&lt;/b&gt;&lt;/p&gt;&lt;hr size=&quot;1&quot; style=&quot;border-style:solid;&quot;&gt;&lt;p style=&quot;margin:0px;margin-left:4px;&quot;&gt;&lt;br&gt;&lt;/p&gt;" style="verticalAlign=top;align=left;overflow=fill;html=1;whiteSpace=wrap;" vertex="1" parent="djY0cKDpvmUm5j8Hwuhj-6">
          <mxGeometry x="38" y="2890" width="222.5" height="60" as="geometry" />
        </mxCell>
        <mxCell id="djY0cKDpvmUm5j8Hwuhj-77" value="&lt;p style=&quot;margin:0px;margin-top:4px;text-align:center;&quot;&gt;&lt;i&gt;&amp;lt;&amp;lt;Interface&amp;gt;&amp;gt;&lt;/i&gt;&lt;br&gt;&lt;b&gt;ResponseMetaData @ProviderType&lt;/b&gt;&lt;/p&gt;&lt;hr size=&quot;1&quot; style=&quot;border-style:solid;&quot;&gt;&lt;p style=&quot;margin:0px;margin-left:4px;&quot;&gt;&lt;br&gt;&lt;/p&gt;&lt;hr size=&quot;1&quot; style=&quot;border-style:solid;&quot;&gt;&lt;div&gt;+ getHash():String&lt;/div&gt;&lt;div&gt;+ setHash(String):Void&lt;/div&gt;&lt;div&gt;&lt;br&gt;&lt;/div&gt;&lt;div&gt;&lt;br&gt;&lt;/div&gt;&lt;div&gt;&lt;br&gt;&lt;/div&gt;&lt;div&gt;&lt;br&gt;&lt;/div&gt;&lt;div&gt;&lt;br&gt;&lt;/div&gt;&lt;div&gt;&lt;br&gt;&lt;/div&gt;" style="verticalAlign=top;align=left;overflow=fill;html=1;whiteSpace=wrap;" vertex="1" parent="djY0cKDpvmUm5j8Hwuhj-6">
          <mxGeometry x="345" y="1610" width="215" height="220" as="geometry" />
        </mxCell>
        <mxCell id="djY0cKDpvmUm5j8Hwuhj-79" value="&lt;p style=&quot;margin:0px;margin-top:4px;text-align:center;&quot;&gt;&lt;i&gt;&amp;lt;&amp;lt;Interface&amp;gt;&amp;gt;&lt;/i&gt;&lt;br&gt;&lt;b&gt;SimpleResult @ProviderType&lt;/b&gt;&lt;/p&gt;&lt;hr size=&quot;1&quot; style=&quot;border-style:solid;&quot;&gt;&lt;p style=&quot;margin:0px;margin-left:4px;&quot;&gt;&lt;br&gt;&lt;/p&gt;&lt;hr size=&quot;1&quot; style=&quot;border-style:solid;&quot;&gt;&lt;div&gt;+ getValue(): String&lt;/div&gt;&lt;div&gt;+ setValue(String):void&lt;/div&gt;&lt;div&gt;&lt;br&gt;&lt;/div&gt;&lt;div&gt;&lt;br&gt;&lt;/div&gt;&lt;div&gt;&lt;br&gt;&lt;/div&gt;&lt;div&gt;&lt;br&gt;&lt;/div&gt;&lt;div&gt;&lt;br&gt;&lt;/div&gt;" style="verticalAlign=top;align=left;overflow=fill;html=1;whiteSpace=wrap;" vertex="1" parent="djY0cKDpvmUm5j8Hwuhj-6">
          <mxGeometry x="15" y="1970" width="215" height="220" as="geometry" />
        </mxCell>
        <mxCell id="djY0cKDpvmUm5j8Hwuhj-80" value="Extends" style="html=1;verticalAlign=bottom;endArrow=block;curved=0;rounded=0;exitX=1;exitY=0.25;exitDx=0;exitDy=0;entryX=0;entryY=0.75;entryDx=0;entryDy=0;" edge="1" parent="djY0cKDpvmUm5j8Hwuhj-6" source="djY0cKDpvmUm5j8Hwuhj-79" target="djY0cKDpvmUm5j8Hwuhj-51">
          <mxGeometry width="80" relative="1" as="geometry">
            <mxPoint x="250" y="2066" as="sourcePoint" />
            <mxPoint x="360" y="1770" as="targetPoint" />
          </mxGeometry>
        </mxCell>
        <mxCell id="djY0cKDpvmUm5j8Hwuhj-82" value="&lt;p style=&quot;margin:0px;margin-top:4px;text-align:center;&quot;&gt;&lt;i&gt;&amp;lt;&amp;lt;Enum&amp;gt;&amp;gt;&lt;/i&gt;&lt;br&gt;&lt;b&gt;StatusType&lt;/b&gt;&lt;/p&gt;&lt;hr size=&quot;1&quot; style=&quot;border-style:solid;&quot;&gt;&lt;p style=&quot;margin:0px;margin-left:4px;&quot;&gt;&lt;br&gt;&lt;/p&gt;" style="verticalAlign=top;align=left;overflow=fill;html=1;whiteSpace=wrap;" vertex="1" parent="djY0cKDpvmUm5j8Hwuhj-6">
          <mxGeometry x="45.25" y="2970" width="222.5" height="60" as="geometry" />
        </mxCell>
        <mxCell id="djY0cKDpvmUm5j8Hwuhj-24" value="Extends" style="html=1;verticalAlign=bottom;endArrow=block;curved=0;rounded=0;exitX=1;exitY=0.25;exitDx=0;exitDy=0;entryX=0;entryY=0.25;entryDx=0;entryDy=0;" edge="1" parent="WIyWlLk6GJQsqaUBKTNV-1" source="djY0cKDpvmUm5j8Hwuhj-32" target="djY0cKDpvmUm5j8Hwuhj-14">
          <mxGeometry width="80" relative="1" as="geometry">
            <mxPoint x="-393" y="684.9999999999998" as="sourcePoint" />
            <mxPoint x="-343" y="510" as="targetPoint" />
          </mxGeometry>
        </mxCell>
        <mxCell id="djY0cKDpvmUm5j8Hwuhj-41" value="eclipse.emf.ecore.EPackage" style="swimlane;whiteSpace=wrap;html=1;" vertex="1" parent="WIyWlLk6GJQsqaUBKTNV-1">
          <mxGeometry x="-62" y="1250" width="240" height="100" as="geometry">
            <mxRectangle x="-370" y="440" width="180" height="30" as="alternateBounds" />
          </mxGeometry>
        </mxCell>
        <mxCell id="djY0cKDpvmUm5j8Hwuhj-42" value="Extends" style="html=1;verticalAlign=bottom;endArrow=block;curved=0;rounded=0;exitX=1;exitY=0.25;exitDx=0;exitDy=0;entryX=0;entryY=0.5;entryDx=0;entryDy=0;" edge="1" parent="WIyWlLk6GJQsqaUBKTNV-1" source="djY0cKDpvmUm5j8Hwuhj-40" target="djY0cKDpvmUm5j8Hwuhj-41">
          <mxGeometry width="80" relative="1" as="geometry">
            <mxPoint x="-371" y="684" as="sourcePoint" />
            <mxPoint x="50" y="485" as="targetPoint" />
          </mxGeometry>
        </mxCell>
        <mxCell id="djY0cKDpvmUm5j8Hwuhj-43" value="eclipse.emf.ecore.EObject" style="swimlane;whiteSpace=wrap;html=1;" vertex="1" parent="WIyWlLk6GJQsqaUBKTNV-1">
          <mxGeometry x="18" y="2120" width="240" height="100" as="geometry">
            <mxRectangle x="-370" y="440" width="180" height="30" as="alternateBounds" />
          </mxGeometry>
        </mxCell>
        <mxCell id="djY0cKDpvmUm5j8Hwuhj-45" value="Extends" style="html=1;verticalAlign=bottom;endArrow=block;curved=0;rounded=0;exitX=1;exitY=0.25;exitDx=0;exitDy=0;entryX=0;entryY=0.5;entryDx=0;entryDy=0;" edge="1" parent="WIyWlLk6GJQsqaUBKTNV-1" source="djY0cKDpvmUm5j8Hwuhj-44" target="djY0cKDpvmUm5j8Hwuhj-43">
          <mxGeometry width="80" relative="1" as="geometry">
            <mxPoint x="-350" y="1193" as="sourcePoint" />
            <mxPoint x="40" y="770" as="targetPoint" />
          </mxGeometry>
        </mxCell>
        <mxCell id="djY0cKDpvmUm5j8Hwuhj-47" value="Extends" style="html=1;verticalAlign=bottom;endArrow=block;curved=0;rounded=0;exitX=1;exitY=0.25;exitDx=0;exitDy=0;entryX=0;entryY=0.5;entryDx=0;entryDy=0;" edge="1" parent="WIyWlLk6GJQsqaUBKTNV-1" source="djY0cKDpvmUm5j8Hwuhj-46" target="djY0cKDpvmUm5j8Hwuhj-43">
          <mxGeometry width="80" relative="1" as="geometry">
            <mxPoint x="-350" y="1398" as="sourcePoint" />
            <mxPoint x="89" y="1100" as="targetPoint" />
          </mxGeometry>
        </mxCell>
        <mxCell id="djY0cKDpvmUm5j8Hwuhj-49" value="Extends" style="html=1;verticalAlign=bottom;endArrow=block;curved=0;rounded=0;exitX=1.006;exitY=0.167;exitDx=0;exitDy=0;entryX=0;entryY=0.5;entryDx=0;entryDy=0;exitPerimeter=0;" edge="1" parent="WIyWlLk6GJQsqaUBKTNV-1" source="djY0cKDpvmUm5j8Hwuhj-48" target="djY0cKDpvmUm5j8Hwuhj-43">
          <mxGeometry width="80" relative="1" as="geometry">
            <mxPoint x="-360" y="1754" as="sourcePoint" />
            <mxPoint x="79" y="1136" as="targetPoint" />
          </mxGeometry>
        </mxCell>
        <mxCell id="djY0cKDpvmUm5j8Hwuhj-53" value="Extends" style="html=1;verticalAlign=bottom;endArrow=block;curved=0;rounded=0;exitX=1;exitY=0.25;exitDx=0;exitDy=0;entryX=0;entryY=0.5;entryDx=0;entryDy=0;" edge="1" parent="WIyWlLk6GJQsqaUBKTNV-1" source="djY0cKDpvmUm5j8Hwuhj-51" target="djY0cKDpvmUm5j8Hwuhj-43">
          <mxGeometry width="80" relative="1" as="geometry">
            <mxPoint x="-69.5" y="1817" as="sourcePoint" />
            <mxPoint x="449.5" y="1360" as="targetPoint" />
          </mxGeometry>
        </mxCell>
        <mxCell id="djY0cKDpvmUm5j8Hwuhj-58" value="Extends" style="html=1;verticalAlign=bottom;endArrow=block;curved=0;rounded=0;exitX=1;exitY=0.25;exitDx=0;exitDy=0;entryX=0;entryY=0.5;entryDx=0;entryDy=0;" edge="1" parent="WIyWlLk6GJQsqaUBKTNV-1" source="djY0cKDpvmUm5j8Hwuhj-56" target="djY0cKDpvmUm5j8Hwuhj-43">
          <mxGeometry width="80" relative="1" as="geometry">
            <mxPoint x="-170" y="2145" as="sourcePoint" />
            <mxPoint x="130" y="1520" as="targetPoint" />
          </mxGeometry>
        </mxCell>
        <mxCell id="djY0cKDpvmUm5j8Hwuhj-66" value="«interface»&lt;br&gt;&lt;b&gt;eclipse.emf.common.util.Enmerator&lt;/b&gt;" style="html=1;whiteSpace=wrap;" vertex="1" parent="WIyWlLk6GJQsqaUBKTNV-1">
          <mxGeometry x="-72" y="3710" width="230" height="50" as="geometry" />
        </mxCell>
        <mxCell id="djY0cKDpvmUm5j8Hwuhj-69" value="Implements" style="html=1;verticalAlign=bottom;endArrow=block;curved=0;rounded=0;exitX=1;exitY=0.5;exitDx=0;exitDy=0;entryX=0;entryY=0.5;entryDx=0;entryDy=0;" edge="1" parent="WIyWlLk6GJQsqaUBKTNV-1" source="djY0cKDpvmUm5j8Hwuhj-68" target="djY0cKDpvmUm5j8Hwuhj-66">
          <mxGeometry width="80" relative="1" as="geometry">
            <mxPoint x="-398.25" y="3090" as="sourcePoint" />
            <mxPoint x="-281.25" y="2810" as="targetPoint" />
          </mxGeometry>
        </mxCell>
        <mxCell id="djY0cKDpvmUm5j8Hwuhj-71" value="Implements" style="html=1;verticalAlign=bottom;endArrow=block;curved=0;rounded=0;exitX=1;exitY=0.5;exitDx=0;exitDy=0;entryX=0;entryY=0.5;entryDx=0;entryDy=0;" edge="1" parent="WIyWlLk6GJQsqaUBKTNV-1" source="djY0cKDpvmUm5j8Hwuhj-70" target="djY0cKDpvmUm5j8Hwuhj-66">
          <mxGeometry width="80" relative="1" as="geometry">
            <mxPoint x="-478" y="3142" as="sourcePoint" />
            <mxPoint x="100" y="3050" as="targetPoint" />
          </mxGeometry>
        </mxCell>
        <mxCell id="djY0cKDpvmUm5j8Hwuhj-78" value="Extends" style="html=1;verticalAlign=bottom;endArrow=block;curved=0;rounded=0;exitX=1;exitY=0.25;exitDx=0;exitDy=0;entryX=0;entryY=0.5;entryDx=0;entryDy=0;" edge="1" parent="WIyWlLk6GJQsqaUBKTNV-1" source="djY0cKDpvmUm5j8Hwuhj-77" target="djY0cKDpvmUm5j8Hwuhj-43">
          <mxGeometry width="80" relative="1" as="geometry">
            <mxPoint x="-400" y="2456" as="sourcePoint" />
            <mxPoint x="-275" y="2140" as="targetPoint" />
          </mxGeometry>
        </mxCell>
        <mxCell id="djY0cKDpvmUm5j8Hwuhj-83" value="Implements" style="html=1;verticalAlign=bottom;endArrow=block;curved=0;rounded=0;exitX=1;exitY=0.5;exitDx=0;exitDy=0;entryX=0;entryY=0.5;entryDx=0;entryDy=0;" edge="1" parent="WIyWlLk6GJQsqaUBKTNV-1" source="djY0cKDpvmUm5j8Hwuhj-82" target="djY0cKDpvmUm5j8Hwuhj-66">
          <mxGeometry width="80" relative="1" as="geometry">
            <mxPoint x="-450" y="3435" as="sourcePoint" />
            <mxPoint x="307" y="3140" as="targetPoint" />
          </mxGeometry>
        </mxCell>
        <mxCell id="djY0cKDpvmUm5j8Hwuhj-106" value="connector.other" style="swimlane;whiteSpace=wrap;html=1;" vertex="1" parent="WIyWlLk6GJQsqaUBKTNV-1">
          <mxGeometry x="134" y="430" width="556" height="410" as="geometry" />
        </mxCell>
        <mxCell id="djY0cKDpvmUm5j8Hwuhj-114" value="@Component" style="swimlane;fontStyle=1;align=center;verticalAlign=top;childLayout=stackLayout;horizontal=1;startSize=26;horizontalStack=0;resizeParent=1;resizeParentMax=0;resizeLast=0;collapsible=1;marginBottom=0;whiteSpace=wrap;html=1;" vertex="1" parent="djY0cKDpvmUm5j8Hwuhj-106">
          <mxGeometry x="60" y="100" width="320" height="230" as="geometry" />
        </mxCell>
        <mxCell id="djY0cKDpvmUm5j8Hwuhj-115" value="- connectorFactory: AconnectorFactory @Refrence&lt;div&gt;- startTimestamp: Long&lt;/div&gt;" style="text;strokeColor=none;fillColor=none;align=left;verticalAlign=top;spacingLeft=4;spacingRight=4;overflow=hidden;rotatable=0;points=[[0,0.5],[1,0.5]];portConstraint=eastwest;whiteSpace=wrap;html=1;" vertex="1" parent="djY0cKDpvmUm5j8Hwuhj-114">
          <mxGeometry y="26" width="320" height="94" as="geometry" />
        </mxCell>
        <mxCell id="djY0cKDpvmUm5j8Hwuhj-116" value="" style="line;strokeWidth=1;fillColor=none;align=left;verticalAlign=middle;spacingTop=-1;spacingLeft=3;spacingRight=3;rotatable=0;labelPosition=right;points=[];portConstraint=eastwest;strokeColor=inherit;" vertex="1" parent="djY0cKDpvmUm5j8Hwuhj-114">
          <mxGeometry y="120" width="320" height="8" as="geometry" />
        </mxCell>
        <mxCell id="djY0cKDpvmUm5j8Hwuhj-117" value="+ activate(): void&lt;div&gt;+ deactivate():void&lt;/div&gt;&lt;div&gt;+ getEndpoints():List&amp;lt;ConnectorEndpoint&amp;gt;&lt;/div&gt;&lt;div&gt;+ getInfo(): ConnectorInfo&lt;/div&gt;&lt;div&gt;+&amp;nbsp;&lt;span style=&quot;background-color: transparent; color: light-dark(rgb(0, 0, 0), rgb(255, 255, 255));&quot;&gt;dryRequest(EndpointRequest):EndpointResponse&lt;/span&gt;&lt;/div&gt;&lt;div&gt;&lt;span style=&quot;background-color: transparent; color: light-dark(rgb(0, 0, 0), rgb(255, 255, 255));&quot;&gt;+&amp;nbsp;&lt;/span&gt;&lt;span style=&quot;background-color: transparent; color: light-dark(rgb(0, 0, 0), rgb(255, 255, 255));&quot;&gt;&amp;nbsp;executeRequest(EndpointRequest):EndpointResponse&amp;nbsp;&lt;/span&gt;&lt;/div&gt;&lt;div&gt;&lt;span style=&quot;background-color: transparent; color: light-dark(rgb(0, 0, 0), rgb(255, 255, 255));&quot;&gt;&lt;br&gt;&lt;/span&gt;&lt;/div&gt;&lt;div&gt;&lt;span style=&quot;background-color: transparent; color: light-dark(rgb(0, 0, 0), rgb(255, 255, 255));&quot;&gt;&lt;br&gt;&lt;/span&gt;&lt;/div&gt;&lt;div&gt;&lt;span style=&quot;background-color: transparent; color: light-dark(rgb(0, 0, 0), rgb(255, 255, 255));&quot;&gt;&lt;br&gt;&lt;/span&gt;&lt;/div&gt;" style="text;strokeColor=none;fillColor=none;align=left;verticalAlign=top;spacingLeft=4;spacingRight=4;overflow=hidden;rotatable=0;points=[[0,0.5],[1,0.5]];portConstraint=eastwest;whiteSpace=wrap;html=1;" vertex="1" parent="djY0cKDpvmUm5j8Hwuhj-114">
          <mxGeometry y="128" width="320" height="102" as="geometry" />
        </mxCell>
        <mxCell id="djY0cKDpvmUm5j8Hwuhj-118" value="&lt;blockquote style=&quot;margin: 0 0 0 40px; border: none; padding: 0px;&quot;&gt;Implements&lt;/blockquote&gt;" style="html=1;verticalAlign=bottom;endArrow=block;curved=0;rounded=0;entryX=0;entryY=0.5;entryDx=0;entryDy=0;exitX=1;exitY=0.5;exitDx=0;exitDy=0;" edge="1" parent="WIyWlLk6GJQsqaUBKTNV-1" source="YxOy0pmNRRjboRJVO0OH-15" target="djY0cKDpvmUm5j8Hwuhj-115">
          <mxGeometry x="-0.0003" y="28" width="80" relative="1" as="geometry">
            <mxPoint x="-730" y="600" as="sourcePoint" />
            <mxPoint x="-169" y="605" as="targetPoint" />
            <Array as="points" />
            <mxPoint as="offset" />
          </mxGeometry>
        </mxCell>
        <mxCell id="djY0cKDpvmUm5j8Hwuhj-120" value="connector.Whiteboard" style="swimlane;whiteSpace=wrap;html=1;" vertex="1" parent="WIyWlLk6GJQsqaUBKTNV-1">
          <mxGeometry x="-821" y="430" width="790" height="390" as="geometry" />
        </mxCell>
        <mxCell id="djY0cKDpvmUm5j8Hwuhj-125" value="&amp;lt;&amp;lt;Interface&amp;gt;&amp;gt;&lt;div&gt;AvatarConnectorInfo&lt;/div&gt;" style="swimlane;fontStyle=1;align=center;verticalAlign=top;childLayout=stackLayout;horizontal=1;startSize=60;horizontalStack=0;resizeParent=1;resizeParentMax=0;resizeLast=0;collapsible=1;marginBottom=0;whiteSpace=wrap;html=1;fillStyle=auto;" vertex="1" parent="djY0cKDpvmUm5j8Hwuhj-120">
          <mxGeometry y="116" width="280" height="120" as="geometry">
            <mxRectangle x="60" y="50" width="120" height="40" as="alternateBounds" />
          </mxGeometry>
        </mxCell>
        <mxCell id="djY0cKDpvmUm5j8Hwuhj-126" value="" style="line;strokeWidth=1;fillColor=none;align=left;verticalAlign=middle;spacingTop=-1;spacingLeft=3;spacingRight=3;rotatable=0;labelPosition=right;points=[];portConstraint=eastwest;strokeColor=inherit;" vertex="1" parent="djY0cKDpvmUm5j8Hwuhj-125">
          <mxGeometry y="60" width="280" height="8" as="geometry" />
        </mxCell>
        <mxCell id="djY0cKDpvmUm5j8Hwuhj-127" value="+ getAllConnectors():List&amp;lt;ConnectorInfo&amp;gt;&lt;div&gt;+ getExternalConnectors():List&amp;lt;ConnectorIno&amp;gt;&lt;/div&gt;" style="text;strokeColor=none;fillColor=none;align=left;verticalAlign=top;spacingLeft=4;spacingRight=4;overflow=hidden;rotatable=0;points=[[0,0.5],[1,0.5]];portConstraint=eastwest;whiteSpace=wrap;html=1;" vertex="1" parent="djY0cKDpvmUm5j8Hwuhj-125">
          <mxGeometry y="68" width="280" height="52" as="geometry" />
        </mxCell>
        <mxCell id="djY0cKDpvmUm5j8Hwuhj-129" value="COnnectorWhiteboardImpl @Component" style="swimlane;fontStyle=1;align=center;verticalAlign=top;childLayout=stackLayout;horizontal=1;startSize=26;horizontalStack=0;resizeParent=1;resizeParentMax=0;resizeLast=0;collapsible=1;marginBottom=0;whiteSpace=wrap;html=1;" vertex="1" parent="djY0cKDpvmUm5j8Hwuhj-120">
          <mxGeometry x="340" y="90" width="430" height="270" as="geometry" />
        </mxCell>
        <mxCell id="djY0cKDpvmUm5j8Hwuhj-130" value="- connectors: List&amp;lt;AvatarConnector&amp;gt;&lt;div&gt;- externalCOnnectors: List&amp;lt;AvatarConnector&amp;gt;&lt;/div&gt;&lt;div&gt;- infoMap: Map&amp;lt;AvatarConnector,ConnectorInfo&amp;gt;&lt;/div&gt;" style="text;strokeColor=none;fillColor=none;align=left;verticalAlign=top;spacingLeft=4;spacingRight=4;overflow=hidden;rotatable=0;points=[[0,0.5],[1,0.5]];portConstraint=eastwest;whiteSpace=wrap;html=1;" vertex="1" parent="djY0cKDpvmUm5j8Hwuhj-129">
          <mxGeometry y="26" width="430" height="94" as="geometry" />
        </mxCell>
        <mxCell id="djY0cKDpvmUm5j8Hwuhj-131" value="" style="line;strokeWidth=1;fillColor=none;align=left;verticalAlign=middle;spacingTop=-1;spacingLeft=3;spacingRight=3;rotatable=0;labelPosition=right;points=[];portConstraint=eastwest;strokeColor=inherit;" vertex="1" parent="djY0cKDpvmUm5j8Hwuhj-129">
          <mxGeometry y="120" width="430" height="8" as="geometry" />
        </mxCell>
        <mxCell id="djY0cKDpvmUm5j8Hwuhj-132" value="+ activate(): void&lt;div&gt;+ deactivate():void&lt;/div&gt;&lt;div&gt;+ getAllConnectors:List&amp;lt;ConnectorInfo&amp;gt;&lt;/div&gt;&lt;div&gt;&lt;span style=&quot;background-color: transparent; color: light-dark(rgb(0, 0, 0), rgb(255, 255, 255));&quot;&gt;+ getExternalConnectors:List&amp;gt;ConnectorInfo&lt;/span&gt;&lt;/div&gt;&lt;div&gt;&lt;span style=&quot;background-color: transparent; color: light-dark(rgb(0, 0, 0), rgb(255, 255, 255));&quot;&gt;+ addConnector(AvatarConnector,Map&amp;lt;String,Object&amp;gt;):void @Refrence&lt;/span&gt;&lt;/div&gt;&lt;div&gt;&lt;span style=&quot;background-color: transparent; color: light-dark(rgb(0, 0, 0), rgb(255, 255, 255));&quot;&gt;+ removeConneector(AvatarConnector,Map&amp;lt;String,Object&amp;gt;): Void&lt;/span&gt;&lt;/div&gt;&lt;div&gt;&lt;span style=&quot;background-color: transparent; color: light-dark(rgb(0, 0, 0), rgb(255, 255, 255));&quot;&gt;+ printConnectionInfo(AvatarConnector,boolean):Void&lt;/span&gt;&lt;/div&gt;" style="text;strokeColor=none;fillColor=none;align=left;verticalAlign=top;spacingLeft=4;spacingRight=4;overflow=hidden;rotatable=0;points=[[0,0.5],[1,0.5]];portConstraint=eastwest;whiteSpace=wrap;html=1;" vertex="1" parent="djY0cKDpvmUm5j8Hwuhj-129">
          <mxGeometry y="128" width="430" height="142" as="geometry" />
        </mxCell>
        <mxCell id="djY0cKDpvmUm5j8Hwuhj-133" value="&lt;blockquote style=&quot;margin: 0 0 0 40px; border: none; padding: 0px;&quot;&gt;Implements&lt;/blockquote&gt;" style="html=1;verticalAlign=bottom;endArrow=block;curved=0;rounded=0;exitX=1;exitY=0.5;exitDx=0;exitDy=0;entryX=-0.01;entryY=0.745;entryDx=0;entryDy=0;entryPerimeter=0;" edge="1" parent="djY0cKDpvmUm5j8Hwuhj-120" source="djY0cKDpvmUm5j8Hwuhj-125" target="djY0cKDpvmUm5j8Hwuhj-130">
          <mxGeometry x="-0.8153" y="27" width="80" relative="1" as="geometry">
            <mxPoint x="279" y="204" as="sourcePoint" />
            <mxPoint x="373" y="230" as="targetPoint" />
            <Array as="points" />
            <mxPoint as="offset" />
          </mxGeometry>
        </mxCell>
      </root>
    </mxGraphModel>
  </diagram>
</mxfile>
